<?xml version="1.0" standalone="no"?>
<!DOCTYPE svg PUBLIC "-//W3C//DTD SVG 1.1//EN" "http://www.w3.org/Graphics/SVG/1.1/DTD/svg11.dtd" >
<svg xmlns="http://www.w3.org/2000/svg">
<metadata>Generated by IcoMoon</metadata>
<defs>
<font id="icomoon" horiz-adv-x="1024">
<font-face units-per-em="1024" ascent="960" descent="-64" />
<missing-glyph horiz-adv-x="1024" />
<glyph unicode="&#x20;" horiz-adv-x="512" d="" />
<glyph unicode="&#xe900;" glyph-name="arrow-down" horiz-adv-x="791" d="M697.277 432.356c-12.929 14.352-33.875 14.481-46.933 0.259l-221.737-241.519v602.376c0 20.17-14.869 36.461-33.099 36.461-18.36 0-33.099-16.42-33.099-36.461v-602.246l-221.737 241.39c-13.059 14.222-34.004 14.093-46.933-0.259s-12.8-37.495 0.259-51.717l278.109-303.063c6.465-7.111 14.869-10.602 23.273-10.602 8.533 0 16.937 3.491 23.273 10.602l277.98 302.933c13.446 14.352 13.576 37.495 0.646 51.846z" />
<glyph unicode="&#xe901;" glyph-name="arrow-left" horiz-adv-x="791" d="M379.345 146.747c14.352 12.929 14.481 33.875 0.259 46.933l-241.519 221.737h602.376c20.17 0 36.461 14.869 36.461 33.099 0 18.36-16.42 33.099-36.461 33.099h-602.376l241.519 221.737c14.222 13.059 14.093 34.004-0.259 46.933s-37.495 12.8-51.717-0.259l-302.933-278.238c-7.111-6.465-10.602-14.869-10.602-23.273 0-8.533 3.491-16.937 10.602-23.273l302.933-277.98c14.222-13.317 37.366-13.446 51.717-0.517z" />
<glyph unicode="&#xe902;" glyph-name="arrow-right" horiz-adv-x="791" d="M411.669 750.287c-14.352-12.929-14.481-33.875-0.259-46.933l241.519-221.737h-602.376c-20.17 0-36.461-14.869-36.461-33.099 0-18.36 16.42-33.099 36.461-33.099h602.376l-241.519-221.737c-14.222-13.059-14.093-34.004 0.259-46.933s37.495-12.8 51.717 0.259l303.063 278.109c7.111 6.465 10.602 14.869 10.602 23.273 0 8.533-3.491 16.937-10.602 23.273l-302.933 277.98c-14.352 13.446-37.495 13.576-51.846 0.646z" />
<glyph unicode="&#xe903;" glyph-name="arrow-up" horiz-adv-x="791" d="M93.737 464.679c12.929-14.352 33.875-14.481 46.933-0.259l221.737 241.519v-602.376c0-20.17 14.869-36.461 33.099-36.461 18.36 0 33.099 16.42 33.099 36.461v602.376l221.737-241.519c13.059-14.222 34.004-14.093 46.933 0.259s12.8 37.495-0.259 51.717l-278.238 302.933c-6.465 7.111-14.869 10.602-23.273 10.602-8.533 0-16.937-3.491-23.273-10.602l-277.98-302.933c-13.317-14.222-13.446-37.366-0.517-51.717z" />
<glyph unicode="&#xe904;" glyph-name="carrot-down" horiz-adv-x="791" d="M763.604 577.034l-325.947-307.846c-23.661-22.368-62.061-22.368-85.721 0l-325.947 307.846c-26.893 25.471-7.758 68.913 30.255 68.913h677.236c38.012 0 57.147-43.442 30.125-68.913z" />
<glyph unicode="&#xe905;" glyph-name="carrot-open-down" horiz-adv-x="791" d="M394.99 230.917c-11.766 0-23.143 4.784-31.418 13.446l-336.937 345.6c-17.325 17.842-17.325 46.675 0 64.517s45.511 17.842 62.966 0l305.519-313.406 305.519 313.406c17.325 17.842 45.511 17.842 62.836 0 17.455-17.842 17.455-46.675 0-64.517l-337.067-345.729c-8.275-8.533-19.653-13.317-31.418-13.317z" />
<glyph unicode="&#xe906;" glyph-name="carrot-open-left" horiz-adv-x="791" d="M176.485 449.293c0 11.766 4.784 23.143 13.446 31.418l345.6 337.067c17.842 17.325 46.675 17.325 64.517 0s17.842-45.511 0-62.966l-313.277-305.519 313.406-305.519c17.842-17.325 17.842-45.511 0-62.836-17.842-17.455-46.675-17.455-64.517 0l-345.729 336.937c-8.533 8.275-13.446 19.653-13.446 31.418z" />
<glyph unicode="&#xe907;" glyph-name="carrot-open-right" horiz-adv-x="791" d="M613.495 449.293c0-11.766-4.784-23.143-13.446-31.418l-345.6-336.937c-17.842-17.325-46.675-17.325-64.517 0s-17.842 45.511 0 62.966l313.277 305.39-313.277 305.519c-17.842 17.325-17.842 45.511 0 62.836 17.842 17.455 46.675 17.455 64.517 0l345.6-336.937c8.663-8.275 13.446-19.523 13.446-31.418z" />
<glyph unicode="&#xe908;" glyph-name="carrot-open-up" horiz-adv-x="791" d="M394.99 667.798c11.766 0 23.143-4.784 31.418-13.446l336.937-345.6c17.325-17.842 17.325-46.675 0-64.517s-45.511-17.842-62.966 0l-305.39 313.406-305.519-313.406c-17.325-17.842-45.511-17.842-62.836 0-17.455 17.842-17.455 46.675 0 64.517l336.937 345.6c8.275 8.663 19.653 13.446 31.418 13.446z" />
<glyph unicode="&#xe909;" glyph-name="check" horiz-adv-x="791" d="M753.39 653.576l-68.137 68.267-416.323-416.84-158.513 158.642-68.655-68.784 226.263-226.521 2.069 2.198 0.259-0.259z" />
<glyph unicode="&#xe90a;" glyph-name="close-circle" horiz-adv-x="791" d="M395.507 830.966c-210.618 0-381.414-170.796-381.414-381.414s170.796-381.414 381.414-381.414c210.618 0 381.414 170.796 381.414 381.414s-170.796 381.414-381.414 381.414zM567.208 336.937c16.291-16.291 16.291-42.796 0-59.087s-42.796-16.291-59.087 0l-112.614 112.614-112.614-112.614c-16.291-16.291-42.796-16.291-59.087 0s-16.291 42.796 0 59.087l112.614 112.614-112.614 112.614c-16.291 16.291-16.291 42.796 0 59.087s42.796 16.291 59.087 0l112.614-112.614 112.614 112.614c16.291 16.291 42.796 16.291 59.087 0s16.291-42.796 0-59.087l-112.614-112.614 112.614-112.614z" />
<glyph unicode="&#xe90b;" glyph-name="close" horiz-adv-x="791" d="M776.404 723.523l-106.537 106.537-274.877-274.877-274.877 274.877-106.537-106.537 274.877-274.877-274.877-274.877 106.537-106.537 274.877 274.877 274.877-274.877 106.537 106.537-274.877 274.877 274.877 274.877z" />
<glyph unicode="&#xe90c;" glyph-name="comment" horiz-adv-x="791" d="M674.521 806.012h-557.77c-56.501 0-102.529-46.804-102.529-104.339v-354.004c0-57.535 46.028-104.339 102.529-104.339h262.077l191.741-150.756v150.756h103.952c56.501 0 102.529 46.804 102.529 104.339v354.004c0 57.665-46.028 104.339-102.529 104.339zM614.4 422.012h-446.19c-14.352 0-26.246 11.895-26.246 26.634 0 14.61 11.636 26.634 26.246 26.634h446.19c14.352 0 26.246-11.895 26.246-26.634s-11.766-26.634-26.246-26.634zM614.4 594.489h-446.19c-14.352 0-26.246 11.895-26.246 26.634 0 14.61 11.636 26.634 26.246 26.634h446.19c14.352 0 26.246-11.895 26.246-26.634s-11.766-26.634-26.246-26.634z" />
<glyph unicode="&#xe90d;" glyph-name="envelope" horiz-adv-x="791" d="M38.4 648.533c20.687-11.119 307.2-164.978 317.802-170.796 10.731-5.689 24.436-8.533 38.4-8.533s27.798 2.715 38.4 8.533c10.602 5.689 297.115 159.677 317.802 170.796s40.339 46.028 2.198 46.028h-716.929c-38.012-0.129-18.489-35.038 2.327-46.028zM759.596 563.717c-23.531-12.283-312.242-163.297-326.594-170.796s-24.436-8.533-38.4-8.533c-13.964 0-24.048 1.034-38.4 8.533s-303.063 158.513-326.594 170.796c-16.549 8.663-16.42-1.552-16.42-9.309s0-310.949 0-310.949c0-17.713 23.661-40.598 42.020-40.598h678.788c18.36 0 42.020 22.885 42.020 40.598 0 0 0 303.063 0 310.949 0 7.758 0.129 17.972-16.42 9.309z" />
<glyph unicode="&#xe90e;" glyph-name="facebook-box" horiz-adv-x="791" d="M730.376 830.061h-673.099c-24.695 0-44.865-20.17-44.865-44.735v-670.772c0-24.566 20.17-44.735 44.865-44.735h673.099c24.695 0 44.865 20.17 44.865 44.735v670.772c0 24.566-20.17 44.735-44.865 44.735zM501.139 590.093c-20.040 0-41.632 0-51.976 0-10.214 0-20.687-10.602-20.687-18.489s0-52.752 0-52.752 64.129 0 72.533 0c-2.844-40.469-8.921-77.446-8.921-77.446h-64v-211.911h-95.289v211.782h-46.416v77.188h46.416c0 0 0 51.588 0 63.095s-2.327 88.824 97.745 88.824c13.446 0 43.83 0 70.594 0 0-33.487 0-69.818 0-80.291z" />
<glyph unicode="&#xe90f;" glyph-name="facebook" horiz-adv-x="791" d="M584.404 829.285c-47.063 0-100.719 0-124.38 0-176.097 0-171.96-133.689-171.96-153.729s0-109.253 0-109.253h-81.713v-133.56h81.713v-366.158h167.822v366.545h112.614c0 0 10.602 64 15.644 134.077-14.739 0-127.612 0-127.612 0s0 77.576 0 91.41c0 13.576 18.23 32.065 36.461 32.065s56.242 0 91.539 0c-0.129 17.842-0.129 80.679-0.129 138.602z" />
<glyph unicode="&#xe910;" glyph-name="googleplus" horiz-adv-x="791" d="M381.673 292.59c-8.275 9.568-19.006 19.394-32.323 29.737-13.317 10.214-28.962 21.721-46.545 34.521-3.749 0.646-7.111 0.905-9.956 0.905h-11.895c-1.939 0-6.335-0.129-13.317-0.517-6.982-0.259-15.127-0.905-24.695-1.939-9.438-0.905-19.653-2.586-30.513-4.784-10.731-2.198-21.204-4.913-31.418-8.145-5.042-1.939-12.154-4.913-21.333-9.051s-18.23-10.085-27.152-17.713c-8.792-7.628-16.549-17.196-23.273-28.832-6.594-11.507-9.956-25.988-9.956-43.184 0-34.521 14.998-62.578 45.123-84.428 30.125-21.721 70.723-32.711 122.182-32.711 45.64 0 80.42 9.697 104.081 29.349 23.661 19.523 35.685 44.347 35.685 74.214 0 12.154-2.069 23.143-6.206 33.099-4.137 10.085-10.343 19.911-18.489 29.479zM453.818 201.568c-10.731-21.721-26.634-41.115-47.58-58.053-20.816-16.937-47.063-30.772-78.481-41.374-31.418-10.473-67.362-15.774-107.83-15.774-34.263 0-64.129 3.879-89.859 11.507-25.6 7.628-46.933 17.842-64.129 30.772-17.067 12.8-29.867 27.41-38.012 43.701-8.275 16.291-12.283 33.487-12.283 51.329 0 17.196 5.172 36.978 15.644 58.958s29.608 41.374 57.535 57.923c14.481 8.921 30.255 16.162 47.063 21.592s33.487 9.697 49.907 12.929c16.42 3.232 32.065 5.43 46.545 6.723s27.281 2.198 38.012 2.844c-6.982 8.921-13.446 18.36-19.394 28.315-6.077 9.826-9.051 22.109-9.051 36.978 0 8.275 0.905 15.127 2.844 20.558s4.137 10.99 6.594 16.679c-5.042-0.646-10.085-1.164-15.127-1.422-5.042-0.388-10.085-0.517-15.127-0.517-25.341 0-47.838 4.267-67.491 12.929-19.653 8.533-36.202 19.911-49.519 34.004s-23.402 30.255-30.513 48.485-10.473 36.59-10.473 55.079c0 22.368 5.042 44.994 15.127 67.62s25.341 43.055 45.64 60.897c27.281 22.368 55.855 36.848 86.109 43.184 30.125 6.335 58.182 9.568 84.17 9.568h195.879l-60.768-33.616h-58.958c5.689-4.525 12.283-10.343 19.911-17.713s14.869-16.291 21.851-27.022c6.982-10.473 12.929-22.756 17.972-36.978s7.628-30.125 7.628-47.968-2.198-33.616-6.594-47.063c-4.396-13.446-10.473-25.341-17.972-36.073-7.628-10.602-16.162-20.17-25.729-28.832-9.438-8.663-19.265-16.679-29.479-24.436-6.335-6.465-12.283-13.059-17.972-20.17-5.689-6.982-8.533-16.032-8.533-27.022 0-10.861 2.844-19.265 8.533-25.341s10.99-11.378 16.162-15.903l34.263-26.893c10.085-8.921 20.040-17.842 29.996-27.022 9.826-8.921 18.36-18.489 25.729-28.832 7.24-10.214 13.059-21.721 17.584-34.651 4.396-12.8 6.594-27.539 6.594-44.089-0.259-21.851-5.689-43.96-16.42-65.81zM778.602 646.594h-118.949v-121.018h-50.683v120.889h-118.949v50.554h118.949v119.984h50.683v-119.984h118.949v-50.424zM330.214 539.152c10.731 10.861 17.455 23.014 19.911 36.59 2.457 13.446 3.749 24.695 3.749 33.745 0 17.325-2.586 36.202-7.628 56.76-5.042 20.428-12.671 39.822-22.756 57.665-10.085 17.972-22.626 32.97-37.624 44.735-14.869 11.895-32.194 17.713-51.846 17.713-12.671 0-24.954-2.844-37.107-8.663-12.024-5.818-21.851-13.446-29.479-23.014-8.275-10.214-13.705-21.463-16.549-33.745-2.844-12.154-4.267-24.566-4.267-37.495 0-16.032 2.327-34.004 7.111-53.915s12.024-38.529 21.851-55.855c9.826-17.196 22.109-31.935 37.107-43.83 14.869-11.895 32.453-17.713 52.752-17.713 12.024 0 23.919 2.586 35.685 7.758 11.766 5.042 21.592 11.507 29.091 19.265z" />
<glyph unicode="&#xe911;" glyph-name="heart" horiz-adv-x="791" d="M562.812 795.281c-67.103 0-128.776-31.547-168.469-83.523-39.693 51.976-101.366 83.523-168.469 83.523-117.398 0-212.945-96.582-212.945-215.402 0-55.725 21.075-108.735 59.345-149.204l321.939-327.37 21.592 21.98 294.659 299.572c41.891 40.598 65.293 95.806 65.293 155.022 0 118.82-95.547 215.402-212.945 215.402v0z" />
<glyph unicode="&#xe912;" glyph-name="instagram" horiz-adv-x="791" d="M641.939 739.943h-64.646c-11.507 0-20.945-9.438-20.945-21.204v-65.164c0-11.636 9.309-21.204 20.945-21.204h64.646c11.507 0 20.945 9.438 20.945 21.204v65.164c0.129 11.766-9.438 21.204-20.945 21.204zM774.982 261.301c0-104.727-84.428-189.931-188.251-189.931h-376.76c-103.822 0-188.251 85.204-188.251 189.931v259.879h218.634c-10.861-23.143-16.937-49.261-16.937-76.671 0-99.426 80.162-180.234 178.812-180.234s178.812 80.808 178.812 180.234c0 27.41-6.206 53.269-17.067 76.671h211.006v-259.879zM328.016 444.638c0 41.244 33.358 74.861 74.214 74.861s74.214-33.616 74.214-74.861-33.358-74.861-74.214-74.861-74.214 33.487-74.214 74.861zM774.982 591.515h-269.317c-29.22 21.075-64.776 33.358-103.434 33.358s-74.214-12.412-103.434-33.487h-277.075v52.881c0 104.727 84.428 189.931 188.251 189.931h376.76c103.822 0 188.251-85.204 188.251-189.931v-52.752z" />
<glyph unicode="&#xe913;" glyph-name="map-pin" horiz-adv-x="791" d="M394.343 830.836c-153.729 0-278.756-123.863-278.756-276.17 0-98.392 44.865-209.584 133.301-330.214 65.164-88.695 129.293-148.428 132.008-151.014l0.129-0.129c7.628-7.111 19.523-6.982 27.152 0.129l0.129 0.129c2.715 2.586 66.844 63.741 131.879 153.083 88.307 121.665 133.301 231.952 133.301 327.758-0.259 152.436-125.414 276.428-279.143 276.428zM394.343 472.954c-50.424 0-91.41 40.598-91.41 90.634 0 49.907 40.986 90.634 91.41 90.634s91.539-40.598 91.539-90.634-41.115-90.634-91.539-90.634z" />
<glyph unicode="&#xe914;" glyph-name="menu" horiz-adv-x="791" d="M13.576 648.404v61.673c0 8.792 3.103 16.162 9.438 22.497 6.206 6.335 13.834 9.438 23.014 9.438h698.958c8.663 0 15.903-3.232 22.238-9.438 6.206-6.465 9.309-13.834 9.309-22.497v-61.673c0-8.663-3.103-16.162-9.309-22.497-6.335-6.465-13.576-9.568-22.238-9.568h-699.087c-9.18 0-16.808 3.103-23.014 9.568-6.206 6.206-9.309 13.834-9.309 22.497zM13.576 414.901v61.414c0 8.663 3.103 15.903 9.438 22.109 6.206 6.206 13.834 9.18 23.014 9.18h698.958c8.663 0 15.903-3.103 22.238-9.438 6.206-6.335 9.309-13.446 9.309-21.851v-61.414c0-8.663-3.103-15.903-9.309-22.109-6.335-6.206-13.576-9.18-22.238-9.18h-699.087c-9.18 0-16.808 3.232-23.014 9.438-6.206 6.335-9.309 13.446-9.309 21.851zM13.576 186.053v56.889c0 8.145 3.103 15.127 9.438 21.075 6.206 5.947 13.834 8.921 23.014 8.921h698.958c8.663 0 15.903-2.974 22.238-8.921 6.206-5.947 9.309-12.929 9.309-21.075v-56.889c0-8.663-3.103-15.903-9.309-21.851-6.335-5.947-13.576-8.921-22.238-8.921h-699.087c-9.18 0-16.808 2.974-23.014 8.921s-9.309 13.059-9.309 21.851z" />
<glyph unicode="&#xe915;" glyph-name="metacake" horiz-adv-x="791" d="M579.749 599.919c-39.434-8.792-57.018-27.798-62.836-55.596s-38.012-29.22-51.2 0c-11.636 23.402-58.44 36.59-48.226-14.61 8.792-40.857 17.584-78.869-11.636-78.869-36.59 0-10.214 65.81-10.214 96.453 0 36.59-24.824 36.59-43.83 23.402-16.032-11.636-10.214-24.824-42.408-24.824-29.22 0-38.012 40.857-70.206 49.648-2.974 0-5.818 1.422-8.792 1.422v0 0c-68.655 11.636-146.101 35.038-165.107 74.473v-245.398c0-36.59 99.426-96.453 179.717-96.453v65.81l40.857-71.628c35.038-4.396 73.051-5.818 111.063-5.818s76.024 1.422 111.063 5.818l40.857 71.628v-64.259c35.038 5.818 68.655 13.188 99.426 21.98 45.253 14.61 80.42 36.59 80.42 74.473v243.976c-18.877-35.038-84.687-58.44-148.945-71.628zM15.644 351.547c0-78.869 170.925-141.705 381.414-141.705s381.414 64.259 381.414 141.705v49.648c0-73.051-170.925-131.491-381.414-131.491s-381.414 58.44-381.414 131.491v-49.648z" />
<glyph unicode="&#xe916;" glyph-name="phone-a" horiz-adv-x="791" d="M572.251 66.586c-32.065 0-62.448 12.541-85.204 35.297l-438.949 438.949c-22.756 22.756-35.297 53.010-35.297 85.204s12.541 62.448 35.297 85.204l112.743 112.743c6.982 6.982 19.523 6.982 26.764 0l136.404-136.533c7.37-7.37 7.37-19.265 0-26.764l-51.2-51.2c-7.499-7.499-11.766-17.713-11.766-28.574s4.267-20.945 11.766-28.574l225.745-225.745c7.499-7.499 17.713-11.766 28.574-11.766s20.945 4.267 28.574 11.766l51.2 51.2c6.982 6.982 19.523 6.982 26.764 0l136.533-136.533c7.37-7.37 7.37-19.265 0-26.764l-112.743-112.743c-22.756-22.626-53.010-35.168-85.204-35.168z" />
<glyph unicode="&#xe917;" glyph-name="phone-b" horiz-adv-x="791" d="M375.855 637.285c18.877-52.364 30.125-117.398 30.125-187.992s-11.248-135.628-30.255-187.992h-97.487c-13.446 0-24.307-10.861-24.307-24.307v-144.679c0-13.446 10.861-24.307 24.307-24.307h111.838c40.857 0 77.317 25.6 91.152 64.129 33.616 93.349 52.752 201.697 52.752 317.285s-19.135 223.935-52.622 317.285c-13.834 38.529-50.295 64.129-91.152 64.129h-111.838c-13.446 0-24.307-10.861-24.307-24.307v-144.679c0-13.446 10.861-24.307 24.307-24.307l97.487-0.259z" />
<glyph unicode="&#xe918;" glyph-name="phone" horiz-adv-x="791" d="M572.251 66.586c-32.065 0-62.448 12.541-85.204 35.297l-438.949 438.949c-22.756 22.756-35.297 53.010-35.297 85.204s12.541 62.448 35.297 85.204l112.743 112.743c6.982 6.982 19.523 6.982 26.764 0l136.404-136.533c7.37-7.37 7.37-19.265 0-26.764l-51.2-51.2c-7.499-7.499-11.766-17.713-11.766-28.574s4.267-20.945 11.766-28.574l225.745-225.745c7.499-7.499 17.713-11.766 28.574-11.766s20.945 4.267 28.574 11.766l51.2 51.2c6.982 6.982 19.523 6.982 26.764 0l136.533-136.533c7.37-7.37 7.37-19.265 0-26.764l-112.743-112.743c-22.756-22.626-53.010-35.168-85.204-35.168z" />
<glyph unicode="&#xe919;" glyph-name="play-circle-a" horiz-adv-x="791" d="M521.956 460.283l-173.511 144.032c-4.525 3.749-10.861 4.525-16.162 2.069s-8.792-7.887-8.792-13.834v-287.935c0-5.947 3.362-11.248 8.792-13.834 2.069-1.034 4.267-1.422 6.465-1.422 3.491 0 6.982 1.164 9.697 3.491l173.511 143.903c3.491 2.844 5.56 7.24 5.56 11.766-0.129 4.655-2.198 8.921-5.56 11.766zM353.875 337.067v223.16l134.465-111.58-134.465-111.58zM394.99 830.061c-210.36 0-381.414-171.055-381.414-381.414s171.055-381.414 381.414-381.414 381.414 171.055 381.414 381.414c0 210.36-171.055 381.414-381.414 381.414zM394.99 97.616c-193.552 0-351.030 157.479-351.030 351.030s157.479 351.030 351.030 351.030 351.030-157.479 351.030-351.030c0-193.552-157.479-351.030-351.030-351.030z" />
<glyph unicode="&#xe91a;" glyph-name="play-circle-b" horiz-adv-x="791" d="M393.697 831.354c-210.618 0-381.414-170.796-381.414-381.414s170.796-381.414 381.414-381.414c210.618 0 381.414 170.796 381.414 381.414s-170.796 381.414-381.414 381.414zM393.697 131.879c-175.58 0-318.061 142.352-318.061 318.061 0 175.58 142.352 318.061 318.061 318.061 175.58 0 318.061-142.352 318.061-318.061 0-175.58-142.481-318.061-318.061-318.061zM288.065 303.192l269.964 150.626-269.964 142.869v-293.495z" />
<glyph unicode="&#xe91b;" glyph-name="play-circle-c" horiz-adv-x="791" d="M393.697 830.061c-210.618 0-381.414-170.796-381.414-381.414s170.796-381.414 381.414-381.414 381.414 170.796 381.414 381.414c0 210.618-170.796 381.414-381.414 381.414zM301.511 263.499v355.685l277.721-177.778-277.721-177.907z" />
<glyph unicode="&#xe91c;" glyph-name="plus" horiz-adv-x="791" d="M26.505 379.992c9.18-8.792 20.428-13.188 34.004-13.188h251.345v-252.38c0-12.929 4.525-23.919 13.705-32.97 9.18-9.18 20.040-13.705 32.97-13.705h71.499c12.929 0 23.919 4.525 32.97 13.705 9.18 9.18 13.705 20.428 13.705 34.004v251.345h252.38c12.929 0 23.919 4.525 32.97 13.705 9.18 9.18 13.705 20.040 13.705 32.97v71.499c0 12.929-4.525 23.919-13.705 32.97-9.18 9.18-20.040 13.705-32.97 13.705h-252.251v252.38c0 12.929-4.525 23.919-13.705 32.97-9.18 9.18-20.040 13.705-32.97 13.705h-71.499c-13.576 0-24.695-4.525-33.487-13.705s-13.188-20.428-13.188-34.004v-251.345h-252.38c-12.929 0-23.919-4.525-32.97-13.705-9.18-9.18-13.834-20.040-13.834-32.97v-71.499c0-13.576 4.655-24.695 13.705-33.487z" />
<glyph unicode="&#xe91d;" glyph-name="print" horiz-adv-x="791" d="M632.113 163.814v-47.709c0-26.376-21.333-47.709-47.709-47.709h-381.414c-26.376 0-47.709 21.333-47.709 47.709v47.709c-78.998 0-142.998 64.129-142.998 143.127v142.998c0 78.998 64 142.998 142.998 142.998v0 190.707c0 26.376 21.333 47.709 47.709 47.709h381.414c26.376 0 47.709-21.333 47.709-47.709v-190.707c78.998 0 142.998-64 142.998-142.998v-142.998c0-78.998-64-143.127-142.998-143.127zM202.99 116.234h381.414v190.707h-381.414v-190.707zM584.404 783.644h-381.414v-190.707h47.709v142.998h285.996v-142.998h47.709v190.707zM298.408 688.356v-95.289h190.707v95.289h-190.707zM584.404 497.648h-47.709v-47.709h47.709v47.709zM679.693 497.648h-47.709v-47.709h47.709v47.709zM679.693 354.521c0 26.376-21.333 47.709-47.709 47.709h-476.703c-26.376 0-47.709-21.333-47.709-47.709v-95.289h47.709v47.709c0 26.376 21.333 47.709 47.709 47.709h381.414c26.376 0 47.709-21.333 47.709-47.709v-47.709h47.709v95.289z" />
<glyph unicode="&#xe91e;" glyph-name="quote-left" horiz-adv-x="791" d="M13.446 363.313c0-133.56 86.368-209.713 183.079-209.713 88.436 0 162.392 74.085 162.392 162.392s-61.802 148.040-139.766 148.040c-16.42 0-34.909-2.069-41.115-6.206 18.489 74.085 94.642 160.323 160.323 195.362l-113.131 90.505c-127.483-88.436-211.782-226.133-211.782-380.38zM432.873 363.313c0-133.56 84.299-209.713 181.010-209.713 90.505 0 162.392 74.085 162.392 162.392s-61.802 148.040-137.697 148.040c-16.42 0-34.909-2.069-41.115-6.206 16.42 74.085 94.642 160.323 160.323 195.362l-115.071 90.505c-127.483-88.436-209.842-226.133-209.842-380.38z" />
<glyph unicode="&#xe91f;" glyph-name="search" horiz-adv-x="791" d="M695.208 748.865c-52.364 52.364-122.053 81.196-196.137 81.196s-143.644-28.832-196.008-81.196c-102.917-102.917-107.83-267.248-14.869-375.984l-21.075-21.204c-8.921 4.396-18.877 6.723-29.091 6.723-17.842 0-34.521-6.982-47.063-19.523l-157.996-157.996c-25.859-25.859-25.859-68.137 0-94.125 12.541-12.541 29.22-19.523 47.063-19.523s34.521 6.982 47.063 19.523l158.125 158.125c20.558 20.558 24.695 51.329 12.8 76.024l21.204 21.204c50.166-42.925 113.261-66.457 180.105-66.457 74.085 0 143.644 28.832 196.137 81.196 52.234 52.493 81.067 122.053 81.067 196.008-0.129 73.956-28.962 143.644-81.325 196.008zM640.388 411.539c-37.754-37.754-87.919-58.44-141.317-58.44s-103.434 20.816-141.317 58.44c-77.964 77.834-77.964 204.541 0 282.376 37.754 37.754 87.919 58.44 141.317 58.44s103.564-20.816 141.317-58.44 58.44-87.79 58.44-141.317c0-53.139-20.816-103.305-58.44-141.059z" />
<glyph unicode="&#xe920;" glyph-name="share" horiz-adv-x="791" d="M584.404 227.426h-495.838v343.273h99.038c0 0 26.246 34.263 82.747 76.283h-219.927c-21.075 0-38.141-17.067-38.141-38.141v-419.556c0-21.075 17.067-38.141 38.141-38.141h572.121c21.075 0 38.141 17.067 38.141 38.141v142.869l-76.283-62.707v-42.020zM521.956 492.477v-135.37l253.156 198.335-253.156 190.707v-119.337c-307.459 0-307.459-303.968-307.459-303.968 87.014 142.869 140.541 169.632 307.459 169.632z" />
<glyph unicode="&#xe921;" glyph-name="triangle-down" horiz-adv-x="791" d="M776.404 723.006l-381.414-550.917-381.414 550.917h762.828z" />
<glyph unicode="&#xe922;" glyph-name="triangle-left" horiz-adv-x="791" d="M670.384 66.198l-550.917 381.414 550.917 381.414v-762.828z" />
<glyph unicode="&#xe923;" glyph-name="triangle-right" horiz-adv-x="791" d="M119.467 829.026l550.917-381.414-550.917-381.414v762.828z" />
<glyph unicode="&#xe924;" glyph-name="triangle-up" horiz-adv-x="791" d="M13.576 172.218l381.414 550.917 381.414-550.917h-762.828z" />
<glyph unicode="&#xe925;" glyph-name="twitter-box" horiz-adv-x="791" d="M731.41 830.061h-673.099c-24.695 0-44.865-20.17-44.865-44.735v-670.772c0-24.566 20.17-44.735 44.865-44.735h673.099c24.695 0 44.865 20.17 44.865 44.735v670.772c0 24.566-20.17 44.735-44.865 44.735zM593.713 551.564c0.259-4.396 0.259-8.792 0.259-13.188 0-135.111-103.176-290.909-291.814-290.909-57.923 0-111.838 16.937-157.22 45.899 8.016-0.905 16.162-1.422 24.436-1.422 48.097 0 92.315 16.291 127.354 43.701-44.865 0.776-82.747 30.384-95.806 70.982 6.206-1.164 12.671-1.81 19.265-1.81 9.309 0 18.36 1.293 27.022 3.62-46.933 9.438-82.23 50.683-82.23 100.202 0 0.388 0 0.905 0 1.293 13.834-7.628 29.608-12.283 46.416-12.8-27.539 18.36-45.64 49.648-45.64 85.075 0 18.747 5.042 36.331 13.834 51.459 50.554-61.802 126.19-102.529 211.394-106.796-1.81 7.499-2.715 15.257-2.715 23.273 0 56.501 45.899 102.271 102.529 102.271 29.479 0 56.113-12.412 74.861-32.323 23.402 4.525 45.253 13.059 65.164 24.824-7.628-23.919-23.919-43.96-45.123-56.501 20.687 2.457 40.469 8.016 58.958 16.032-13.446-20.428-30.901-38.529-50.941-52.881z" />
<glyph unicode="&#xe926;" glyph-name="twitter" horiz-adv-x="791" d="M542.125 751.451c-86.497 0-156.574-68.655-156.574-153.212 0-12.024 1.293-23.661 4.137-34.909-130.069 6.465-245.398 67.491-322.586 160.194-13.446-22.626-21.204-48.873-21.204-77.059 0-53.139 27.669-99.943 69.689-127.483-25.729 0.776-49.778 7.628-70.853 19.265v-1.939c0-74.214 53.915-136.145 125.543-150.238-13.059-3.491-27.022-5.43-41.244-5.43-10.085 0-19.911 0.905-29.349 2.844 19.911-60.897 77.705-105.115 146.23-106.408-53.527-41.244-121.147-65.681-194.327-65.681-12.541 0-25.083 0.646-37.366 2.069 69.301-43.442 151.531-68.913 239.838-68.913 287.806 0 445.285 233.503 445.285 435.846 0 6.594-0.129 13.188-0.388 19.911 30.642 21.592 57.018 48.614 78.093 79.386-28.057-12.154-58.311-20.428-89.988-24.048 32.323 18.877 57.018 49.002 68.913 84.816-30.255-17.584-63.741-30.384-99.297-37.236-28.832 29.608-69.56 48.226-114.554 48.226z" />
<glyph unicode="&#xe927;" glyph-name="video" horiz-adv-x="791" d="M321.422 347.669v205.446l191.354-102.788-191.354-102.659zM643.362 704.259h-494.933c-70.982 0-115.976-57.406-128.517-125.802-8.145-44.347-8.792-190.836 0-260.913 8.663-68.913 57.535-125.802 128.517-125.802h494.804c70.982 0 122.699 56.501 128.517 125.802 8.016 95.418 4.008 180.234 0 260.913-3.362 69.43-57.535 125.802-128.388 125.802z" />
</font>
</defs>
</svg>
